Patient4_TMGait_0pt4_03_left_43_EMG.mot
version=1
nRows=13
nColumns=33
inDegrees=no
endheader
time	1LAddLong	2LGlutMax	3LGlutMed	4LIliopsoas	5LSemiMemb	6LBicFemLong	7LRecFem	8LVastMed	9LVastLat	10LGasMed	11LTibAnt	12lTibPost	13LPeroneusLong	14LSol	15LExtDigLong	16LFlexDigLong	17RAddLong	18RGlutMax	19RGlutMed	20RIliopsoas	21RSemiMemb	22RBicFemLong	23RRecFem	24RVastMed	25RVastLat	26RGasMed	27RTibAnt	28RTibPost	29RPeroneusLong	30RSol	31RExtDigLong	32RFlexDigLong
56.99	0.004578	-0.07782	-0.007019	0.000153	-0.019531	0.078888	0.062103	-0.017548	-0.17975	0.023804	-0.003815	0.005493	0.02182	0.019684	0.019684	0.006561	-0.0354	-0.007629	0.26749	-0.093231	-0.12131	0.071716	-0.016022	-0.02121	0.006866	-0.006714	-0.16052	-0.004578	0.12253	0.21286	0.00412	-0.013275
56.991	0.007324	-0.071564	-0.013428	0.001678	-0.03006	0.076294	0.060577	-0.00412	-0.19653	0.042114	0.12848	0.001373	-0.005798	-0.040588	0.03418	0.00351	-0.019379	0.079803	0.19882	-0.069733	-0.065002	0.001984	0.005646	0.01297	-0.011444	-0.003662	0.019836	-0.002899	0.083313	0.11185	-0.000305	-0.007324
56.992	0.002441	-0.090027	-0.007935	0.004272	-0.011292	0.074158	0.053558	0.005188	-0.21835	0.048523	0.15732	0.004883	-0.043488	-0.090179	0.071259	0.004425	-0.018616	0.14679	-0.046082	0.025482	-0.010681	-0.020294	-0.10346	0.063934	-0.071869	-0.006714	0.006104	0.001221	-0.059662	0.026703	0.003204	-0.001831
56.993	0.002899	-0.098419	-0.015869	-0.012512	-0.020599	0.075684	0.043793	0.009918	-0.21545	0.039368	-0.13077	0.001831	-0.003357	-0.13626	0.034637	0.005188	-0.022278	0.1445	0.097046	0.052185	-0.036621	-0.017242	-0.31464	-0.032501	-0.038452	-0.02121	0.0177	-0.000153	-0.16632	0.1445	0.002289	-0.011292
56.994	-0.007172	-0.10727	-0.011902	0.007172	-0.011902	0.045929	0.036163	0.003052	-0.20523	0.037842	-0.18723	0.001221	0.031738	-0.14465	0.015869	0.001068	0.003815	0.17349	0.47867	0.090179	-0.04425	-0.020142	-0.087433	0.032196	0.06546	-0.023346	0.30746	-0.007324	-0.14862	0.11444	0.001526	-0.007324
56.995	0.008545	-0.10544	-0.045471	0.002289	-0.018005	0.039673	0.040436	0.003967	-0.18707	0.013428	-0.045776	-0.000916	0.039978	-0.10315	-0.02182	0.005188	0.011597	0.16571	0.48706	0.1474	-0.0354	-0.029602	0.040588	0.076141	0.11719	-0.009308	0.51422	-0.000305	-0.052338	-0.011292	0.002594	-0.00824
56.996	0.006561	-0.1265	-0.071259	0.010834	-0.020142	0.038147	0.040283	-0.001831	-0.16327	0.023193	-0.033875	0.007477	0.023804	-0.06485	-0.034943	0.010376	0.017395	0.15686	0.47455	0.091553	-0.040588	-0.009918	0.043182	0.091705	0.089417	-0.001221	0.46295	-0.007477	-0.01236	-0.062256	0.002594	-0.000916
56.997	0.007019	-0.11704	-0.059052	0.005951	-0.025635	0.031891	0.027313	-0.000458	-0.12878	0.014648	-0.045166	0.007324	-0.008545	-0.042267	0.013733	0.013275	0.005035	0.13306	0.38818	0.037842	-0.028687	0.014801	0.003815	0.061493	0.072479	-0.008545	0.10086	-0.002289	-0.15182	-0.093231	0.001221	-0.006714
56.998	0.017548	-0.11047	-0.042725	0.00885	-0.007629	0.027618	0.028381	0.001221	-0.098267	0.014038	-0.11307	-0.000458	-0.035248	-0.049438	0.06546	0.011749	0.000458	0.16403	0.52292	0	-0.030823	0.002899	-0.097809	-0.026245	-0.022736	-0.003662	-0.1326	-0.005951	-0.15366	-0.066681	-0.001678	0.001831
56.999	0.01236	-0.12589	-0.039368	0.007477	-0.004272	0.032501	0.02533	-0.000458	-0.076141	-0.006866	-0.14847	-0.002899	-0.021667	-0.088806	0.080261	0.019073	-0.001678	0.15259	0.38574	0.065613	-0.030823	0.009155	0.002136	-0.065155	-0.094147	-0.005493	-0.20493	-0.005035	-0.047913	-0.060883	0.000916	0.005646
57	0.014801	-0.13214	-0.016327	-0.014496	-0.011902	0.033722	0.028839	0.010376	-0.050659	-0.018921	-0.14496	0.000916	-0.019531	-0.055237	0.35095	0.000458	0.00351	0.14435	0.25238	0.059814	-0.036621	-0.002899	0.084229	-0.1265	-0.1593	-0.001526	-0.28305	-0.008392	-0.013885	-0.11414	-0.000458	-0.004425
57.001	0.008545	-0.14069	0.043793	-0.002441	-0.007019	0.022278	0.032501	0.002289	-0.045624	-0.05127	-0.05188	0.00473	-0.017548	-0.00885	0.32364	0.008087	0.009918	0.15091	-0.021057	0.052948	-0.032501	0.002441	0.054169	-0.19012	-0.18738	0	0.21622	-0.014343	0.044098	-0.16876	-0.001678	-0.001221
57.002	0.005646	-0.13809	0.049286	-0.002747	-0.011597	0.032806	0.035706	0.009613	-0.028534	-0.027008	0.18387	0.000916	-0.058594	-0.020752	0.31036	0.005646	0.00946	0.14954	-0.074158	-0.004578	-0.025024	0.012207	-0.09903	-0.16892	-0.18646	-0.004272	0.40009	-0.014496	-0.006561	-0.074768	-0.007324	-0.001373
